<svg width="1257" height="458" viewBox="0 0 1257 458" fill="none" xmlns="http://www.w3.org/2000/svg">
<path d="M193.435 337.818C192.584 336.372 191.776 334.883 191.011 333.352C190.245 331.82 189.564 330.289 188.969 328.758C177.995 299.834 167.064 271.166 156.176 242.753C145.287 214.339 134.356 185.671 123.383 156.747C123.383 156.322 123.319 155.939 123.191 155.599C123.064 155.259 123 154.918 123 154.578C123 152.196 124.574 151.005 127.721 151.005H168.808C172.041 151.005 174.252 152.622 175.443 155.854L214.489 272.102L250.6 155.854C251.79 152.622 254.13 151.005 257.618 151.005H299.087C301.044 151.005 302.426 151.367 303.234 152.09C304.042 152.813 304.447 153.77 304.447 154.961C304.447 155.641 304.404 156.109 304.319 156.365V156.747L281.606 221.826L298.705 271.974L340.047 155.854C341.238 152.622 343.577 151.005 347.065 151.005H387.259C389.215 151.005 390.597 151.367 391.406 152.09C392.214 152.813 392.618 153.77 392.618 154.961C392.618 155.641 392.575 156.109 392.49 156.365V156.747C386.706 171.72 380.794 186.649 374.754 201.536C368.714 216.424 362.653 231.311 356.571 246.198C350.489 261.085 344.449 275.993 338.452 290.923C332.455 305.853 326.606 320.761 320.907 335.648C320.567 336.584 319.801 337.626 318.61 338.775C317.419 339.923 315.973 340.497 314.272 340.497H313.889H283.01C281.138 340.497 279.713 340.136 278.735 339.413C277.757 338.69 277.055 337.733 276.63 336.542L256.469 283.458C253.577 291.2 250.727 298.792 247.92 306.236C245.113 313.679 242.306 321.272 239.498 329.013C239.073 330.204 238.584 331.459 238.031 332.777C237.478 334.096 236.819 335.329 236.053 336.478C235.288 337.626 234.416 338.583 233.437 339.349C232.459 340.115 231.332 340.497 230.056 340.497H229.673H198.794C196.072 340.497 194.286 339.604 193.435 337.818V337.818ZM410.865 188.393C410.865 185.671 411.63 183.332 413.161 181.375C414.693 179.418 417.074 178.44 420.307 178.44H449.527C450.548 178.44 451.654 178.674 452.845 179.142C454.036 179.61 455.142 180.29 456.162 181.184C457.183 182.077 458.055 183.119 458.778 184.31C459.501 185.501 459.863 186.862 459.863 188.393V330.672C459.863 333.904 458.97 336.35 457.183 338.009C455.397 339.668 452.845 340.497 449.527 340.497H420.307C414.012 340.497 410.865 337.222 410.865 330.672V188.393ZM410.865 123.826C410.865 120.253 411.63 117.722 413.161 116.233C414.693 114.744 417.074 114 420.307 114H449.91C452.887 114 455.29 114.744 457.119 116.233C458.948 117.722 459.863 120.253 459.863 123.826V148.708C459.863 149.729 459.629 150.835 459.161 152.026C458.693 153.217 458.034 154.365 457.183 155.471C456.332 156.577 455.29 157.492 454.057 158.215C452.824 158.938 451.441 159.299 449.91 159.299H420.307C414.012 159.299 410.865 155.769 410.865 148.708V123.826ZM488.955 187.755C488.955 184.778 489.87 182.375 491.699 180.546C493.528 178.717 496.016 177.802 499.163 177.802H606.602C609.324 177.802 611.727 178.632 613.812 180.29C615.896 181.949 616.938 184.437 616.938 187.755V209.958C616.938 210.724 616.874 211.617 616.746 212.638C616.619 213.659 616.172 214.68 615.407 215.701L545.099 299.154H608.133C611.196 299.154 613.641 299.983 615.47 301.642C617.299 303.301 618.214 305.917 618.214 309.49V329.523C618.214 330.799 617.98 332.097 617.512 333.415C617.044 334.734 616.364 335.925 615.47 336.988C614.577 338.052 613.514 338.902 612.28 339.54C611.047 340.178 609.665 340.497 608.133 340.497H495.591C494.23 340.497 492.932 340.178 491.699 339.54C490.465 338.902 489.36 338.073 488.381 337.052C487.403 336.031 486.637 334.862 486.084 333.543C485.532 332.224 485.255 330.885 485.255 329.523V311.914C485.255 310.723 485.361 309.575 485.574 308.469C485.787 307.363 486.403 306.214 487.424 305.023C493.124 298.728 499.1 291.901 505.352 284.543C511.604 277.184 517.921 269.72 524.3 262.148C530.68 254.577 537.018 247.091 543.313 239.69C549.608 232.289 555.605 225.398 561.304 219.018H499.163C496.016 219.018 493.528 218.168 491.699 216.466C489.87 214.765 488.955 212.085 488.955 208.427V187.755V187.755ZM805.275 331.055C805.275 332.501 805.019 333.883 804.509 335.202C803.999 336.52 803.148 337.562 801.957 338.328C801.021 339.264 799.915 339.859 798.639 340.115C797.364 340.37 796.258 340.497 795.322 340.497H770.185C768.398 340.497 766.952 340.263 765.846 339.796C764.741 339.328 763.847 338.668 763.167 337.818C762.486 336.967 761.912 335.925 761.444 334.691C760.976 333.458 760.487 332.118 759.977 330.672L756.276 321.102C753.98 323.398 751.47 325.844 748.748 328.439C746.026 331.033 743.027 333.437 739.752 335.648C736.477 337.86 732.926 339.71 729.098 341.199C725.27 342.688 721.187 343.432 716.848 343.432C709.107 343.432 701.685 342.454 694.582 340.497C687.479 338.541 680.844 335.755 674.677 332.139C668.509 328.524 662.916 324.185 657.897 319.124C652.878 314.062 648.561 308.426 644.946 302.216C641.331 296.006 638.545 289.307 636.588 282.118C634.632 274.93 633.653 267.423 633.653 259.596C633.653 247.772 635.823 236.776 640.161 226.611C644.499 216.445 650.411 207.598 657.897 200.069C665.383 192.54 674.187 186.628 684.31 182.332C694.433 178.036 705.279 175.888 716.848 175.888C722.122 175.888 726.971 176.675 731.395 178.249C735.818 179.822 739.837 181.885 743.453 184.437C747.068 186.99 750.343 189.882 753.278 193.115C756.213 196.347 758.828 199.622 761.125 202.94L766.102 187.5C766.952 185.373 767.654 183.651 768.207 182.332C768.76 181.013 769.355 180.035 769.993 179.397C770.631 178.759 771.418 178.334 772.354 178.121C773.29 177.908 774.608 177.802 776.31 177.802H795.322C796.258 177.802 797.364 177.93 798.639 178.185C799.915 178.44 801.021 179.036 801.957 179.971C803.148 180.907 803.999 181.97 804.509 183.161C805.019 184.352 805.275 185.714 805.275 187.245V331.055V331.055ZM679.589 259.596C679.589 265.211 680.461 270.464 682.205 275.355C683.949 280.247 686.437 284.479 689.669 288.052C692.902 291.625 696.794 294.454 701.345 296.538C705.896 298.622 710.936 299.664 716.465 299.664C722.165 299.664 727.46 298.622 732.352 296.538C737.243 294.454 741.496 291.625 745.111 288.052C748.727 284.479 751.555 280.247 753.597 275.355C755.638 270.464 756.659 265.211 756.659 259.596C756.659 254.152 755.638 248.963 753.597 244.029C751.555 239.095 748.727 234.756 745.111 231.013C741.496 227.27 737.243 224.314 732.352 222.145C727.46 219.975 722.165 218.891 716.465 218.891C710.936 218.891 705.896 219.975 701.345 222.145C696.794 224.314 692.902 227.27 689.669 231.013C686.437 234.756 683.949 239.095 682.205 244.029C680.461 248.963 679.589 254.152 679.589 259.596V259.596ZM835.899 187.883C835.899 186.437 836.218 185.054 836.856 183.736C837.494 182.417 838.28 181.375 839.216 180.609C841.428 179.163 843.725 178.44 846.107 178.44H865.374C866.99 178.44 868.266 178.738 869.202 179.333C870.138 179.929 870.925 180.694 871.563 181.63C872.201 182.566 872.754 183.629 873.221 184.82C873.689 186.011 874.263 187.202 874.944 188.393C875.114 188.734 875.454 189.563 875.965 190.882C876.475 192.2 877.028 193.646 877.624 195.22C878.219 196.794 878.793 198.283 879.346 199.686C879.899 201.09 880.261 202.004 880.431 202.43C882.983 199.622 885.428 196.666 887.768 193.561C890.107 190.456 892.595 187.585 895.232 184.948C897.869 182.311 900.804 180.141 904.037 178.44C907.269 176.739 911.097 175.888 915.521 175.888C920.114 175.888 924.219 176.228 927.834 176.909C931.449 177.589 934.873 178.589 938.106 179.908C941.338 181.226 944.549 182.906 947.739 184.948C950.929 186.99 954.396 189.372 958.139 192.094C964.008 195.241 965.114 199.92 961.456 206.13L949.845 225.909C948.144 228.461 946.059 230.035 943.593 230.63C941.126 231.226 938.446 230.843 935.554 229.482C931.896 225.909 928.174 223.25 924.389 221.507C920.603 219.763 916.286 218.891 911.437 218.891C908.12 218.891 905.206 219.359 902.697 220.294C900.187 221.23 897.912 222.549 895.87 224.25C893.829 225.951 891.915 227.993 890.128 230.375C888.342 232.757 886.556 235.394 884.769 238.286V330.672C884.769 333.904 883.982 336.35 882.409 338.009C880.835 339.668 878.219 340.497 874.561 340.497H845.851C839.216 340.497 835.899 337.222 835.899 330.672V187.883V187.883ZM1084.59 320.719C1082.29 323.016 1079.76 325.483 1077 328.12C1074.23 330.757 1071.19 333.224 1067.87 335.521C1064.56 337.818 1060.98 339.71 1057.16 341.199C1053.33 342.688 1049.2 343.432 1044.78 343.432C1033.21 343.432 1022.56 341.263 1012.82 336.924C1003.08 332.586 994.696 326.652 987.678 319.124C980.66 311.595 975.173 302.727 971.218 292.518C967.262 282.31 965.284 271.336 965.284 259.596C965.284 247.772 967.262 236.776 971.218 226.611C975.173 216.445 980.66 207.598 987.678 200.069C994.696 192.54 1003.08 186.628 1012.82 182.332C1022.56 178.036 1033.21 175.888 1044.78 175.888C1049.46 175.888 1053.73 176.569 1057.6 177.93C1061.47 179.291 1065 181.035 1068.19 183.161C1071.38 185.288 1074.32 187.691 1077 190.371C1079.68 193.051 1082.21 195.667 1084.59 198.219V139.904C1084.59 137.181 1085.42 134.885 1087.08 133.013C1088.74 131.141 1091.23 130.206 1094.54 130.206H1123.25C1124.36 130.206 1125.53 130.44 1126.76 130.908C1128 131.375 1129.12 132.035 1130.14 132.885C1131.16 133.736 1131.99 134.757 1132.63 135.948C1133.27 137.139 1133.59 138.457 1133.59 139.904V330.672C1133.59 337.222 1130.14 340.497 1123.25 340.497H1098.24C1096.54 340.497 1095.22 340.285 1094.29 339.859C1093.35 339.434 1092.56 338.817 1091.93 338.009C1091.29 337.201 1090.71 336.18 1090.2 334.947C1089.69 333.713 1089.06 332.288 1088.29 330.672L1084.59 320.719ZM1011.22 259.596C1011.22 265.211 1012.09 270.464 1013.84 275.355C1015.58 280.247 1018.07 284.479 1021.3 288.052C1024.53 291.625 1028.42 294.454 1032.98 296.538C1037.53 298.622 1042.57 299.664 1048.1 299.664C1053.54 299.664 1058.67 298.686 1063.47 296.729C1068.28 294.773 1072.47 292.072 1076.04 288.626C1079.61 285.181 1082.48 281.119 1084.65 276.44C1086.82 271.761 1088.04 266.742 1088.29 261.383V259.596C1088.29 254.152 1087.27 248.963 1085.23 244.029C1083.19 239.095 1080.36 234.756 1076.74 231.013C1073.13 227.27 1068.87 224.314 1063.98 222.145C1059.09 219.975 1053.8 218.891 1048.1 218.891C1042.57 218.891 1037.53 219.975 1032.98 222.145C1028.42 224.314 1024.53 227.27 1021.3 231.013C1018.07 234.756 1015.58 239.095 1013.84 244.029C1012.09 248.963 1011.22 254.152 1011.22 259.596V259.596Z" fill="#333333"/>
</svg>
