<svg width="1718" height="693" viewBox="0 0 1718 693" fill="none" xmlns="http://www.w3.org/2000/svg">
<path d="M198.544 492.586C133.874 504.035 79.4249 526.016 50.5293 555.865C50.5798 595.727 163.679 628.031 303.176 628.031C442.688 628.031 555.773 595.727 555.823 555.865C529.014 528.232 477.597 504.923 407.83 492.586C338.063 480.235 263.186 481.151 198.544 492.586Z" stroke="#FF8675" stroke-width="26.7857" stroke-miterlimit="10" stroke-linecap="round" stroke-linejoin="round"/>
<path d="M303.176 50.5312L50.5293 555.837V555.865C79.4249 526.016 133.874 504.035 198.544 492.586C263.186 481.151 338.063 480.235 407.83 492.586C477.597 504.923 529.028 528.232 555.823 555.865V555.837L303.176 50.5312Z" stroke="#FF8675" stroke-width="26.7857" stroke-miterlimit="10" stroke-linecap="round" stroke-linejoin="round"/>
<path d="M727.317 451.208C726.467 449.762 725.658 448.273 724.893 446.742C724.127 445.211 723.447 443.68 722.851 442.148C711.878 413.225 700.947 384.556 690.058 356.143C679.17 327.73 668.239 299.062 657.265 270.138C657.265 269.713 657.201 269.33 657.074 268.99C656.946 268.649 656.882 268.309 656.882 267.969C656.882 265.587 658.456 264.396 661.604 264.396H702.691C705.923 264.396 708.135 266.012 709.326 269.245L748.371 385.492L784.482 269.245C785.673 266.012 788.012 264.396 791.5 264.396H832.97C834.926 264.396 836.309 264.757 837.117 265.48C837.925 266.204 838.329 267.161 838.329 268.352C838.329 269.032 838.286 269.5 838.201 269.755V270.138L815.489 335.216L832.587 385.365L873.929 269.245C875.12 266.012 877.459 264.396 880.947 264.396H921.141C923.097 264.396 924.48 264.757 925.288 265.48C926.096 266.204 926.5 267.161 926.5 268.352C926.5 269.032 926.458 269.5 926.373 269.755V270.138C920.588 285.11 914.676 300.04 908.636 314.927C902.596 329.814 896.536 344.701 890.453 359.589C884.371 374.476 878.331 389.384 872.334 404.314C866.337 419.243 860.489 434.152 854.789 449.039C854.449 449.975 853.683 451.017 852.492 452.165C851.301 453.314 849.855 453.888 848.154 453.888H847.771H816.892C815.021 453.888 813.596 453.526 812.618 452.803C811.639 452.08 810.937 451.123 810.512 449.932L790.351 396.849C787.459 404.59 784.609 412.183 781.802 419.626C778.995 427.07 776.188 434.662 773.381 442.404C772.955 443.595 772.466 444.849 771.913 446.168C771.36 447.487 770.701 448.72 769.936 449.868C769.17 451.017 768.298 451.974 767.32 452.74C766.341 453.505 765.214 453.888 763.938 453.888H763.556H732.676C729.954 453.888 728.168 452.995 727.317 451.208V451.208ZM944.747 301.784C944.747 299.062 945.512 296.722 947.044 294.766C948.575 292.809 950.957 291.831 954.189 291.831H983.41C984.43 291.831 985.536 292.065 986.727 292.533C987.918 293 989.024 293.681 990.045 294.574C991.065 295.467 991.937 296.51 992.66 297.701C993.384 298.891 993.745 300.253 993.745 301.784V444.062C993.745 447.295 992.852 449.741 991.065 451.4C989.279 453.059 986.727 453.888 983.41 453.888H954.189C947.894 453.888 944.747 450.613 944.747 444.062V301.784ZM944.747 237.216C944.747 233.643 945.512 231.112 947.044 229.624C948.575 228.135 950.957 227.391 954.189 227.391H983.792C986.77 227.391 989.173 228.135 991.002 229.624C992.831 231.112 993.745 233.643 993.745 237.216V262.099C993.745 263.12 993.511 264.226 993.043 265.417C992.575 266.608 991.916 267.756 991.065 268.862C990.215 269.968 989.173 270.882 987.939 271.605C986.706 272.329 985.323 272.69 983.792 272.69H954.189C947.894 272.69 944.747 269.16 944.747 262.099V237.216ZM1022.84 301.146C1022.84 298.168 1023.75 295.765 1025.58 293.936C1027.41 292.107 1029.9 291.193 1033.05 291.193H1140.48C1143.21 291.193 1145.61 292.022 1147.69 293.681C1149.78 295.34 1150.82 297.828 1150.82 301.146V323.349C1150.82 324.115 1150.76 325.008 1150.63 326.029C1150.5 327.049 1150.05 328.07 1149.29 329.091L1078.98 412.544H1142.02C1145.08 412.544 1147.52 413.374 1149.35 415.033C1151.18 416.691 1152.1 419.307 1152.1 422.88V442.914C1152.1 444.19 1151.86 445.487 1151.39 446.806C1150.93 448.125 1150.25 449.316 1149.35 450.379C1148.46 451.442 1147.4 452.293 1146.16 452.931C1144.93 453.569 1143.55 453.888 1142.02 453.888H1029.47C1028.11 453.888 1026.81 453.569 1025.58 452.931C1024.35 452.293 1023.24 451.464 1022.26 450.443C1021.29 449.422 1020.52 448.252 1019.97 446.934C1019.41 445.615 1019.14 444.275 1019.14 442.914V425.305C1019.14 424.114 1019.24 422.965 1019.46 421.859C1019.67 420.753 1020.29 419.605 1021.31 418.414C1027.01 412.119 1032.98 405.292 1039.23 397.934C1045.49 390.575 1051.8 383.11 1058.18 375.539C1064.56 367.968 1070.9 360.482 1077.2 353.081C1083.49 345.68 1089.49 338.789 1095.19 332.409H1033.05C1029.9 332.409 1027.41 331.558 1025.58 329.857C1023.75 328.155 1022.84 325.476 1022.84 321.818V301.146V301.146ZM1339.16 444.445C1339.16 445.891 1338.9 447.274 1338.39 448.592C1337.88 449.911 1337.03 450.953 1335.84 451.719C1334.9 452.655 1333.8 453.25 1332.52 453.505C1331.25 453.76 1330.14 453.888 1329.2 453.888H1304.07C1302.28 453.888 1300.83 453.654 1299.73 453.186C1298.62 452.718 1297.73 452.059 1297.05 451.208C1296.37 450.358 1295.79 449.316 1295.33 448.082C1294.86 446.849 1294.37 445.509 1293.86 444.062L1290.16 434.492C1287.86 436.789 1285.35 439.235 1282.63 441.829C1279.91 444.424 1276.91 446.827 1273.63 449.039C1270.36 451.251 1266.81 453.101 1262.98 454.59C1259.15 456.079 1255.07 456.823 1250.73 456.823C1242.99 456.823 1235.57 455.845 1228.46 453.888C1221.36 451.931 1214.73 449.145 1208.56 445.53C1202.39 441.914 1196.8 437.576 1191.78 432.514C1186.76 427.453 1182.44 421.817 1178.83 415.607C1175.21 409.397 1172.43 402.697 1170.47 395.509C1168.51 388.321 1167.54 380.813 1167.54 372.987C1167.54 361.162 1169.7 350.167 1174.04 340.001C1178.38 329.835 1184.29 320.988 1191.78 313.46C1199.27 305.931 1208.07 300.019 1218.19 295.723C1228.32 291.427 1239.16 289.279 1250.73 289.279C1256 289.279 1260.85 290.066 1265.28 291.639C1269.7 293.213 1273.72 295.276 1277.34 297.828C1280.95 300.38 1284.23 303.273 1287.16 306.505C1290.09 309.738 1292.71 313.013 1295.01 316.331L1299.98 300.891C1300.83 298.764 1301.54 297.041 1302.09 295.723C1302.64 294.404 1303.24 293.426 1303.88 292.788C1304.51 292.15 1305.3 291.724 1306.24 291.512C1307.17 291.299 1308.49 291.193 1310.19 291.193H1329.2C1330.14 291.193 1331.25 291.32 1332.52 291.576C1333.8 291.831 1334.9 292.426 1335.84 293.362C1337.03 294.298 1337.88 295.361 1338.39 296.552C1338.9 297.743 1339.16 299.104 1339.16 300.635V444.445V444.445ZM1213.47 372.987C1213.47 378.602 1214.34 383.855 1216.09 388.746C1217.83 393.638 1220.32 397.87 1223.55 401.443C1226.78 405.016 1230.68 407.844 1235.23 409.928C1239.78 412.013 1244.82 413.055 1250.35 413.055C1256.05 413.055 1261.34 412.013 1266.23 409.928C1271.13 407.844 1275.38 405.016 1278.99 401.443C1282.61 397.87 1285.44 393.638 1287.48 388.746C1289.52 383.855 1290.54 378.602 1290.54 372.987C1290.54 367.543 1289.52 362.353 1287.48 357.419C1285.44 352.485 1282.61 348.147 1278.99 344.404C1275.38 340.661 1271.13 337.704 1266.23 335.535C1261.34 333.366 1256.05 332.281 1250.35 332.281C1244.82 332.281 1239.78 333.366 1235.23 335.535C1230.68 337.704 1226.78 340.661 1223.55 344.404C1220.32 348.147 1217.83 352.485 1216.09 357.419C1214.34 362.353 1213.47 367.543 1213.47 372.987V372.987ZM1369.78 301.273C1369.78 299.827 1370.1 298.445 1370.74 297.126C1371.38 295.808 1372.16 294.766 1373.1 294C1375.31 292.554 1377.61 291.831 1379.99 291.831H1399.26C1400.87 291.831 1402.15 292.128 1403.08 292.724C1404.02 293.319 1404.81 294.085 1405.44 295.021C1406.08 295.957 1406.64 297.02 1407.1 298.211C1407.57 299.402 1408.15 300.593 1408.83 301.784C1409 302.124 1409.34 302.954 1409.85 304.272C1410.36 305.591 1410.91 307.037 1411.51 308.611C1412.1 310.184 1412.68 311.673 1413.23 313.077C1413.78 314.48 1414.14 315.395 1414.31 315.82C1416.87 313.013 1419.31 310.057 1421.65 306.952C1423.99 303.847 1426.48 300.976 1429.11 298.339C1431.75 295.701 1434.69 293.532 1437.92 291.831C1441.15 290.129 1444.98 289.279 1449.4 289.279C1454 289.279 1458.1 289.619 1461.72 290.299C1465.33 290.98 1468.76 291.98 1471.99 293.298C1475.22 294.617 1478.43 296.297 1481.62 298.339C1484.81 300.38 1488.28 302.762 1492.02 305.484C1497.89 308.632 1499 313.311 1495.34 319.521L1483.73 339.299C1482.03 341.852 1479.94 343.425 1477.47 344.021C1475.01 344.616 1472.33 344.234 1469.44 342.872C1465.78 339.299 1462.06 336.641 1458.27 334.897C1454.49 333.153 1450.17 332.281 1445.32 332.281C1442 332.281 1439.09 332.749 1436.58 333.685C1434.07 334.621 1431.79 335.939 1429.75 337.641C1427.71 339.342 1425.8 341.384 1424.01 343.766C1422.22 346.148 1420.44 348.785 1418.65 351.677V444.062C1418.65 447.295 1417.86 449.741 1416.29 451.4C1414.72 453.059 1412.1 453.888 1408.44 453.888H1379.73C1373.1 453.888 1369.78 450.613 1369.78 444.062V301.273V301.273ZM1618.47 434.109C1616.18 436.406 1613.64 438.873 1610.88 441.51C1608.12 444.148 1605.07 446.615 1601.76 448.911C1598.44 451.208 1594.87 453.101 1591.04 454.59C1587.21 456.079 1583.08 456.823 1578.66 456.823C1567.09 456.823 1556.44 454.654 1546.7 450.315C1536.96 445.977 1528.58 440.043 1521.56 432.514C1514.54 424.986 1509.06 416.117 1505.1 405.909C1501.14 395.701 1499.17 384.727 1499.17 372.987C1499.17 361.162 1501.14 350.167 1505.1 340.001C1509.06 329.835 1514.54 320.988 1521.56 313.46C1528.58 305.931 1536.96 300.019 1546.7 295.723C1556.44 291.427 1567.09 289.279 1578.66 289.279C1583.34 289.279 1587.61 289.959 1591.48 291.32C1595.36 292.681 1598.89 294.425 1602.08 296.552C1605.27 298.679 1608.2 301.082 1610.88 303.762C1613.56 306.441 1616.09 309.057 1618.47 311.609V253.294C1618.47 250.572 1619.3 248.275 1620.96 246.404C1622.62 244.532 1625.11 243.596 1628.43 243.596H1657.13C1658.24 243.596 1659.41 243.83 1660.64 244.298C1661.88 244.766 1663 245.425 1664.03 246.276C1665.05 247.127 1665.88 248.148 1666.51 249.339C1667.15 250.53 1667.47 251.848 1667.47 253.294V444.062C1667.47 450.613 1664.03 453.888 1657.13 453.888H1632.13C1630.42 453.888 1629.11 453.675 1628.17 453.25C1627.23 452.825 1626.45 452.208 1625.81 451.4C1625.17 450.592 1624.6 449.571 1624.09 448.337C1623.58 447.104 1622.94 445.679 1622.17 444.062L1618.47 434.109ZM1545.1 372.987C1545.1 378.602 1545.97 383.855 1547.72 388.746C1549.46 393.638 1551.95 397.87 1555.18 401.443C1558.42 405.016 1562.31 407.844 1566.86 409.928C1571.41 412.013 1576.45 413.055 1581.98 413.055C1587.42 413.055 1592.55 412.076 1597.35 410.12C1602.16 408.163 1606.35 405.462 1609.92 402.017C1613.5 398.572 1616.37 394.51 1618.54 389.831C1620.71 385.152 1621.92 380.133 1622.17 374.773V372.987C1622.17 367.543 1621.15 362.353 1619.11 357.419C1617.07 352.485 1614.24 348.147 1610.62 344.404C1607.01 340.661 1602.76 337.704 1597.86 335.535C1592.97 333.366 1587.68 332.281 1581.98 332.281C1576.45 332.281 1571.41 333.366 1566.86 335.535C1562.31 337.704 1558.42 340.661 1555.18 344.404C1551.95 348.147 1549.46 352.485 1547.72 357.419C1545.97 362.353 1545.1 367.543 1545.1 372.987V372.987Z" fill="white"/>
</svg>
